<svg width="238" height="55" viewBox="0 0 238 55" fill="none" xmlns="http://www.w3.org/2000/svg">
<g clip-path="url(#clip0_7_51)">
<path d="M42.0297 7.22514L32.9529 16.512C30.5441 18.9765 26.6431 18.9765 24.2344 16.512L22.5571 14.7959C20.1483 12.3344 16.2473 12.3344 13.8386 14.7959L0 28.9546V8.69781C0 3.89508 3.807 0 8.50113 0H26.8164C32.9206 0 38.3784 2.8041 42.0297 7.22514Z" fill="#ED417F"/>
<path d="M46.7301 20.368C46.7301 25.6847 44.7443 30.5235 41.4778 34.1511C40.0766 35.7109 38.4345 37.0544 36.6162 38.1063C33.7228 39.7833 30.3829 40.7391 26.8197 40.7391H13.7008L0.0061779 54.7505V37.7576L8.71587 28.8464L13.7831 23.665C16.1918 21.2036 20.0928 21.2036 22.5016 23.665L24.2347 25.4383C26.6434 27.9027 30.5474 27.9027 32.9561 25.4383L45.3142 12.8003C46.2277 15.1415 46.7301 17.6932 46.7301 20.371V20.368Z" fill="#7DC6B5"/>
</g>
<path d="M64.851 36.4097C63.7697 35.5728 63.1649 34.4855 63.0305 33.1537C63.0122 33.0193 63 32.8361 63 32.5917H63.788C63.788 33.8685 64.2645 34.907 65.2114 35.695C66.1583 36.483 67.4045 36.8801 68.95 36.8801H71.2653C72.768 36.8801 73.9898 36.483 74.9183 35.695C75.8469 34.907 76.3173 33.8868 76.3173 32.6467C76.3173 31.4066 76.079 30.5453 75.6086 29.8977C75.1383 29.2502 74.5091 28.7859 73.721 28.4988C72.933 28.2178 71.8884 27.9795 70.5872 27.7963L68.9806 27.5153C67.7588 27.3259 66.7447 27.0754 65.9506 26.7517C65.1503 26.434 64.5028 25.927 64.0018 25.2306C63.5009 24.5342 63.2566 23.5751 63.2566 22.3533C63.2566 21.3942 63.5009 20.5329 63.9896 19.7693C64.4783 19.0057 65.1564 18.4131 66.0239 17.9794C66.8913 17.5456 67.8871 17.3318 69.0172 17.3318H71.1614C72.7253 17.3318 74.0203 17.735 75.0527 18.5475C76.0851 19.3539 76.6899 20.429 76.861 21.7669C76.8793 21.9196 76.8915 22.1334 76.8915 22.4144H76.1035C76.1035 21.1376 75.6453 20.0991 74.7351 19.3111C73.8249 18.5231 72.6336 18.126 71.1675 18.126H68.9928C67.5266 18.126 66.3354 18.5231 65.4252 19.3111C64.515 20.0991 64.0568 21.1193 64.0568 22.3594C64.0568 23.3918 64.2706 24.2043 64.6921 24.7846C65.1137 25.365 65.6818 25.7987 66.3843 26.0675C67.0929 26.3424 67.997 26.5623 69.1088 26.7333L70.7155 27.0143C72.1083 27.2404 73.2506 27.5153 74.1425 27.8329C75.0344 28.1506 75.7614 28.6943 76.3173 29.4579C76.8732 30.2215 77.1481 31.2905 77.1481 32.6589C77.1481 33.618 76.8976 34.4793 76.4028 35.243C75.9019 36.0066 75.2055 36.6052 74.3136 37.0328C73.4217 37.4666 72.4015 37.6804 71.253 37.6804H68.9378C67.3006 37.6804 65.9445 37.2589 64.8632 36.422L64.851 36.4097Z" fill="white"/>
<path d="M85.9144 30.0199L78.0157 17.6067H78.9748L84.9004 26.8616L86.3421 29.1769L93.6482 17.6067H94.5768L86.733 30.0504V37.3871H85.9144V30.0199Z" fill="white"/>
<path d="M97.2949 36.4097C96.2137 35.5728 95.6089 34.4855 95.4745 33.1537C95.4562 33.0193 95.444 32.8361 95.444 32.5917H96.232C96.232 33.8685 96.7085 34.907 97.6554 35.695C98.6022 36.483 99.8484 36.8801 101.394 36.8801H103.709C105.212 36.8801 106.434 36.483 107.362 35.695C108.291 34.907 108.761 33.8868 108.761 32.6467C108.761 31.4066 108.523 30.5453 108.053 29.8977C107.582 29.2502 106.953 28.7859 106.165 28.4988C105.377 28.2178 104.332 27.9795 103.031 27.7963L101.425 27.5153C100.203 27.3259 99.1887 27.0754 98.3945 26.7517C97.5943 26.434 96.9467 25.927 96.4458 25.2306C95.9449 24.5342 95.7005 23.5751 95.7005 22.3533C95.7005 21.3942 95.9449 20.5329 96.4336 19.7693C96.9223 19.0057 97.6004 18.4131 98.4678 17.9794C99.3353 17.5456 100.331 17.3318 101.461 17.3318H103.605C105.169 17.3318 106.464 17.735 107.497 18.5475C108.529 19.3539 109.134 20.429 109.305 21.7669C109.323 21.9196 109.335 22.1334 109.335 22.4144H108.547C108.547 21.1376 108.089 20.0991 107.179 19.3111C106.269 18.5231 105.078 18.126 103.611 18.126H101.437C99.9706 18.126 98.7794 18.5231 97.8692 19.3111C96.9589 20.0991 96.5008 21.1193 96.5008 22.3594C96.5008 23.3918 96.7146 24.2043 97.1361 24.7846C97.5576 25.365 98.1257 25.7987 98.8283 26.0675C99.5369 26.3424 100.441 26.5623 101.553 26.7333L103.159 27.0143C104.552 27.2404 105.695 27.5153 106.586 27.8329C107.478 28.1506 108.205 28.6943 108.761 29.4579C109.317 30.2215 109.592 31.2905 109.592 32.6589C109.592 33.618 109.342 34.4793 108.847 35.243C108.346 36.0066 107.649 36.6052 106.758 37.0328C105.866 37.4666 104.845 37.6804 103.697 37.6804H101.382C99.7446 37.6804 98.3884 37.2589 97.3071 36.422L97.2949 36.4097Z" fill="white"/>
<path d="M118.273 18.3948H110.796V17.6067H126.569V18.3948H119.092V37.3871H118.273V18.3948Z" fill="white"/>
<path d="M128.939 17.6068H141.749V18.3948H129.757V26.9717H140.906V27.7597H129.757V36.5931H141.749V37.3811H128.939V17.6007V17.6068Z" fill="white"/>
<path d="M145.078 17.6067H145.927L154.309 30.2215L154.932 29.2929L162.831 17.6128H163.68V37.3932H162.861V18.969L154.651 31.1012H153.942L145.872 18.969L145.903 21.0032V37.3994H145.084V17.6189L145.078 17.6067Z" fill="white"/>
<path d="M177.584 17.2097C178.714 17.2097 179.74 17.4723 180.675 17.9977C181.603 18.5231 182.342 19.2439 182.892 20.1541C183.436 21.0644 183.711 22.0784 183.711 23.1902V25.3894C183.711 26.5195 183.436 27.558 182.892 28.5049C182.349 29.4579 181.609 30.2093 180.675 30.7591C179.746 31.315 178.72 31.5899 177.614 31.5899L171.744 31.6204V37.3749H167.712V17.1974H177.59L177.584 17.2097ZM177.107 27.7352C178.799 27.7352 179.648 26.8494 179.648 25.084V23.7278C179.648 21.9379 178.799 21.046 177.107 21.046H171.744V27.7596L177.107 27.7291V27.7352Z" fill="white"/>
<path d="M189.099 36.874C187.95 36.2509 187.052 35.3652 186.405 34.2106C185.757 33.056 185.433 31.7121 185.433 30.191V17.2097H189.471V30.0199C189.471 31.315 189.795 32.2802 190.442 32.9094C191.09 33.5386 192.006 33.8563 193.191 33.8563H194.407C195.592 33.8563 196.509 33.5386 197.156 32.9094C197.804 32.2802 198.127 31.315 198.127 30.0199V17.2097H202.19V30.191C202.19 31.7121 201.866 33.056 201.218 34.2106C200.571 35.3652 199.667 36.257 198.512 36.874C197.358 37.4971 196.05 37.8026 194.603 37.8026H192.996C191.548 37.8026 190.247 37.491 189.105 36.874H189.099Z" fill="white"/>
<path d="M214.719 17.2097C215.849 17.2097 216.876 17.4724 217.81 17.9977C218.739 18.5231 219.478 19.2439 220.009 20.1541C220.547 21.0644 220.816 22.0784 220.816 23.1902V24.8274C220.816 26.2019 220.492 27.3504 219.844 28.285C219.197 29.2197 218.238 29.9161 216.979 30.3865L218.219 31.9686L221.946 37.3872H217.15L212.746 31.0401H209.246V37.3872H205.214V17.2097H214.725H214.719ZM214.237 27.3381C215.91 27.3381 216.747 26.4462 216.747 24.6564V23.6973C216.747 21.9318 215.898 21.046 214.206 21.046H209.239V27.3381H214.237Z" fill="white"/>
<path d="M223.632 17.2097H237.853V21.046H227.67V25.365H236.955V29.1158H227.67V33.5203H238V37.3872H223.638V17.2097H223.632Z" fill="white"/>
<defs>
<clipPath id="clip0_7_51">
<rect width="47" height="55" fill="white"/>
</clipPath>
</defs>
</svg>
