      <svg width="29" height="28" viewBox="0 0 29 28" fill="none" xmlns="http://www.w3.org/2000/svg">
<path d="M10.5487 22.1666H9.96533C5.29867 22.1666 2.96533 20.9999 2.96533 15.1666V9.33325C2.96533 4.66659 5.29867 2.33325 9.96533 2.33325H19.2987C23.9653 2.33325 26.2987 4.66659 26.2987 9.33325V15.1666C26.2987 19.8333 23.9653 22.1666 19.2987 22.1666H18.7153C18.3537 22.1666 18.0037 22.3416 17.782 22.6333L16.032 24.9666C15.262 25.9933 14.002 25.9933 13.232 24.9666L11.482 22.6333C11.2953 22.3766 10.8637 22.1666 10.5487 22.1666Z" stroke="#E93BE3" stroke-width="2" stroke-miterlimit="10" stroke-linecap="round" stroke-linejoin="round"/>
<path d="M8.79883 9.33325H20.4655" stroke="#E93BE3" stroke-width="2" stroke-linecap="round" stroke-linejoin="round"/>
<path d="M8.79883 15.1667H15.7988" stroke="#E93BE3" stroke-width="2" stroke-linecap="round" stroke-linejoin="round"/>
</svg>